<svg width="273" height="211" viewBox="0 0 273 211" fill="none" xmlns="http://www.w3.org/2000/svg">
<path d="M197.293 210.207C197.683 210.598 198.317 210.598 198.707 210.207L205.071 203.843C205.462 203.453 205.462 202.819 205.071 202.429C204.681 202.038 204.047 202.038 203.657 202.429L198 208.086L192.343 202.429C191.953 202.038 191.319 202.038 190.929 202.429C190.538 202.819 190.538 203.453 190.929 203.843L197.293 210.207ZM0.0383304 112.774C0.541164 114.538 1.06928 116.253 1.62192 117.921L3.52048 117.293C2.97691 115.652 2.45703 113.963 1.96167 112.226L0.0383304 112.774ZM5.37037 127.709C6.84221 131.053 8.43129 134.171 10.1288 137.076L11.8556 136.067C10.1983 133.23 8.64351 130.181 7.2009 126.903L5.37037 127.709ZM16.0229 145.796C18.2556 148.654 20.6203 151.245 23.1026 153.591L24.4764 152.138C22.0679 149.861 19.7706 147.345 17.599 144.565L16.0229 145.796ZM31.3007 160.202C34.2375 162.211 37.291 163.96 40.4417 165.477L41.3093 163.675C38.245 162.199 35.2794 160.501 32.4301 158.551L31.3007 160.202ZM50.2248 169.384C53.5462 170.465 56.9444 171.345 60.4001 172.056L60.8029 170.097C57.413 169.4 54.0875 168.538 50.8438 167.482L50.2248 169.384ZM70.7785 173.691C74.2276 174.084 77.7146 174.345 81.222 174.501L81.3108 172.503C77.8432 172.348 74.4025 172.091 71.0048 171.704L70.7785 173.691ZM91.6867 174.682C95.1709 174.657 98.6598 174.557 102.137 174.407L102.05 172.409C98.5925 172.558 95.1281 172.658 91.6726 172.682L91.6867 174.682ZM112.554 173.832C116.057 173.603 119.533 173.351 122.961 173.101L122.816 171.106C119.387 171.356 115.918 171.608 112.424 171.836L112.554 173.832ZM133.355 172.368C136.889 172.138 140.35 171.942 143.717 171.814L143.641 169.815C140.249 169.944 136.77 170.141 133.225 170.372L133.355 172.368ZM154.085 171.672C157.682 171.73 161.124 171.921 164.382 172.293L164.609 170.306C161.272 169.925 157.763 169.731 154.117 169.672L154.085 171.672ZM174.434 174.239C177.844 175.238 180.924 176.574 183.633 178.324L184.718 176.644C181.818 174.771 178.554 173.363 174.996 172.32L174.434 174.239ZM190.821 185.194C192.613 187.737 194.055 190.745 195.094 194.301L197.014 193.74C195.919 189.995 194.387 186.783 192.456 184.042L190.821 185.194ZM196.811 204.239C196.936 205.908 197 207.66 197 209.5H199C199 207.614 198.934 205.811 198.805 204.089L196.811 204.239Z" fill="#0F0049"/>
</svg>
