<svg width="343" height="197" viewBox="0 0 343 197" fill="none" xmlns="http://www.w3.org/2000/svg">
<path d="M168.5 59.2704L167.657 58.7328L168.5 59.2704ZM210.5 93.0001L211.254 93.6574L210.5 93.0001ZM159 62L158.802 61.0199L159 62ZM110.533 196.884C111.021 197.142 111.626 196.956 111.884 196.467L116.089 188.51C116.347 188.021 116.16 187.416 115.672 187.158C115.183 186.9 114.578 187.087 114.32 187.575L110.583 194.649L103.51 190.911C103.021 190.653 102.416 190.84 102.158 191.328C101.9 191.817 102.087 192.422 102.575 192.68L110.533 196.884ZM111.956 195.705C111.446 194.054 110.959 192.421 110.494 190.805L108.572 191.358C109.041 192.986 109.531 194.632 110.044 196.295L111.956 195.705ZM107.894 181.034C107.07 177.653 106.348 174.355 105.723 171.139L103.76 171.52C104.391 174.768 105.12 178.097 105.951 181.507L107.894 181.034ZM104.052 161.144C103.573 157.698 103.213 154.356 102.966 151.115L100.972 151.267C101.222 154.551 101.587 157.934 102.071 161.419L104.052 161.144ZM102.55 141.007C102.536 137.515 102.662 134.154 102.92 130.923L100.926 130.764C100.664 134.053 100.536 137.469 100.55 141.015L102.55 141.007ZM104.197 120.936C104.811 117.508 105.587 114.248 106.511 111.151L104.595 110.579C103.648 113.75 102.855 117.084 102.228 120.584L104.197 120.936ZM109.984 101.731C111.387 98.58 112.963 95.6349 114.691 92.8888L112.999 91.8235C111.219 94.6514 109.598 97.6807 108.156 100.918L109.984 101.731ZM120.65 84.8441C122.878 82.2751 125.264 79.9361 127.778 77.8178L126.49 76.2882C123.897 78.4725 121.437 80.8846 119.139 83.5337L120.65 84.8441ZM135.91 71.976C138.783 70.2266 141.767 68.7074 144.828 67.4084L144.047 65.5673C140.899 66.9028 137.829 68.4659 134.87 70.2677L135.91 71.976ZM154.312 64.1353C155.931 63.6964 157.561 63.3117 159.199 62.9801L158.802 61.0199C157.122 61.36 155.45 61.7545 153.789 62.2051L154.312 64.1353ZM159.199 62.9801C160.833 62.649 162.43 62.3598 163.988 62.1104L163.672 60.1355C162.086 60.3893 160.462 60.6835 158.802 61.0199L159.199 62.9801ZM173.642 61.0278C177.091 60.8181 180.309 60.8266 183.298 61.0233L183.429 59.0277C180.35 58.825 177.048 58.817 173.521 59.0315L173.642 61.0278ZM192.816 62.4296C196.229 63.2543 199.206 64.3732 201.758 65.7049L202.683 63.9318C199.973 62.5178 196.842 61.3448 193.286 60.4856L192.816 62.4296ZM209.23 71.3907C211.484 73.9368 212.857 76.7324 213.398 79.5394L215.362 79.1606C214.747 75.9726 213.198 72.8559 210.727 70.0649L209.23 71.3907ZM212.276 88.4898C211.648 89.8341 210.805 91.1291 209.746 92.3427L211.254 93.6574C212.43 92.3084 213.378 90.8569 214.088 89.3367L212.276 88.4898ZM209.746 92.3427C208.595 93.6626 207.372 94.8269 206.095 95.8437L207.341 97.4084C208.714 96.3154 210.024 95.0671 211.254 93.6574L209.746 92.3427ZM197.195 100.457C193.911 101.409 190.513 101.686 187.194 101.366L187.002 103.357C190.56 103.699 194.213 103.404 197.752 102.378L197.195 100.457ZM177.509 98.6179C174.46 97.1189 171.718 95.0751 169.494 92.5822L168.002 93.9136C170.407 96.6097 173.36 98.8066 176.627 100.413L177.509 98.6179ZM164.598 83.9042C163.689 80.8818 163.382 77.5433 163.852 73.9513L161.868 73.692C161.363 77.5586 161.69 81.1821 162.683 84.4804L164.598 83.9042ZM166.831 64.2986C167.538 62.8288 168.373 61.3307 169.343 59.8079L167.657 58.7328C166.646 60.319 165.772 61.8863 165.029 63.4314L166.831 64.2986ZM169.343 59.8079C170.201 58.463 171.083 57.1441 171.992 55.8508L170.355 54.7014C169.43 56.0192 168.53 57.3629 167.657 58.7328L169.343 59.8079ZM177.804 48.3188C179.86 45.8893 182.016 43.5643 184.268 41.342L182.864 39.9185C180.57 42.1823 178.372 44.5511 176.277 47.0267L177.804 48.3188ZM191.328 34.9632C193.767 32.9451 196.296 31.0275 198.912 29.2088L197.771 27.5667C195.11 29.4166 192.536 31.3678 190.053 33.4223L191.328 34.9632ZM206.941 24.09C209.665 22.4995 212.467 21.0019 215.343 19.5957L214.465 17.799C211.546 19.2262 208.7 20.7468 205.932 22.3629L206.941 24.09ZM224.053 15.7046C226.972 14.5171 229.955 13.4135 232.999 12.3925L232.363 10.4963C229.28 11.5302 226.258 12.6483 223.299 13.8521L224.053 15.7046ZM242.133 9.62362C245.177 8.79452 248.274 8.04071 251.421 7.36087L250.998 5.40599C247.819 6.09305 244.687 6.8552 241.607 7.6939L242.133 9.62362ZM260.801 5.57533C263.916 5.05955 267.074 4.61104 270.27 4.2286L270.032 2.24276C266.807 2.62866 263.62 3.08137 260.474 3.60219L260.801 5.57533ZM279.785 3.29274C282.937 3.04785 286.123 2.86333 289.338 2.73812L289.261 0.739638C286.02 0.865821 282.809 1.05181 279.63 1.29875L279.785 3.29274ZM298.903 2.53978C302.071 2.53041 305.264 2.57564 308.479 2.67449L308.541 0.675433C305.303 0.57591 302.088 0.530349 298.897 0.53979L298.903 2.53978ZM318.037 3.12125C321.204 3.31899 324.389 3.56647 327.59 3.86277L327.775 1.87128C324.554 1.57318 321.349 1.32415 318.162 1.12514L318.037 3.12125ZM337.109 4.88116C338.692 5.07297 340.277 5.27628 341.866 5.49096L342.134 3.50898C340.536 3.29308 338.942 3.08862 337.35 2.89569L337.109 4.88116Z" fill="#0F0049"/>
</svg>
